<?xml version="1.0" encoding="UTF-8"?>
<svg width="200mm" height="200mm" version="1.1" viewBox="0 0 200 200" xml:space="preserve" xmlns="http://www.w3.org/2000/svg"><defs><linearGradient id="linearGradient926" x2="200" y2="200" gradientUnits="userSpaceOnUse"><stop stop-color="#0b2564" offset="0"/><stop stop-color="#0a0e20" offset="1"/></linearGradient></defs><circle cx="100" cy="100" r="100" fill="url(#linearGradient926)" stroke-width=".265"/><g transform="matrix(.26458 0 0 .26458 28.214 -16.429)" fill="#fff" stroke-width="1.0016" style="shape-inside:url(#rect296);white-space:pre" aria-label="Fr"><path d="m-12.147 564.65v-249.2h155.2v36.4h-114.8v60.4h93.2v36.4h-93.2v116z"/><path d="m162.05 378.65h46.8l-0.4 52-5.2-3.2q1.6-12.4 6.8-22 5.6-9.6 13.6-16.8 8.4-7.2 18-10.8 10-3.6 20.4-3.6 15.6 0 28 5.2 12.8 4.8 23.6 16l-19.2 38-1.2 3.2-3.6-1.6q-1.2-3.2-2.4-6.4-1.2-3.6-6-8-5.6-4.4-12-6.8-6-2.4-13.2-2.4-9.6 0-18.4 3.2t-15.6 10q-6.4 6.8-10.4 17.6-3.6 10.4-3.6 24.8v97.6h-46z"/></g><g transform="matrix(.26458 0 0 .26458 133.66 -15.794)" stroke-width="1.0016" style="shape-inside:url(#rect296-9);white-space:pre" aria-label="#"><path d="m64.253 561.45 8.4-65.2h-33.6l-8 63.2-36 0.4 7.6-62.8h-35.2l2.4-30.8h36.4l6.8-55.2h-40l2-31.2h41.2l7.6-65.2 36.8-0.8-8 65.2h32.8l7.6-63.6 38.4-0.4-7.6 63.2h32.4l-3.6 31.6h-32l-7.2 54.4h34.8l-2 30.8h-35.6l-8.4 64.4zm-22-96h33.2l7.2-54.8h-33.6z" fill="#fff"/></g></svg>
